<?xml version="1.0" standalone="no"?>
<!DOCTYPE svg PUBLIC "-//W3C//DTD SVG 20010904//EN"
 "http://www.w3.org/TR/2001/REC-SVG-20010904/DTD/svg10.dtd">
<svg version="1.0" xmlns="http://www.w3.org/2000/svg"
 width="512.000000pt" height="512.000000pt" viewBox="0 0 512.000000 512.000000"
 preserveAspectRatio="xMidYMid meet">
<metadata>
Created by potrace 1.14, written by Peter Selinger 2001-2017
</metadata>
<g transform="translate(0.000000,512.000000) scale(0.100000,-0.100000)"
fill="#000000" stroke="none">
<path d="M2479 5103 c-45 -19 -86 -59 -111 -108 -20 -37 -21 -57 -21 -300 0
-253 0 -262 23 -307 46 -93 151 -137 256 -109 50 13 119 80 136 130 7 24 11
120 11 291 0 238 -1 258 -21 295 -53 103 -172 150 -273 108z"/>
<path d="M815 4411 c-103 -48 -147 -150 -113 -265 10 -33 48 -77 193 -222 99
-100 194 -188 211 -197 70 -36 182 -20 241 35 62 57 83 162 49 242 -11 26 -78
101 -199 220 -146 146 -190 184 -223 194 -58 17 -112 15 -159 -7z"/>
<path d="M4131 4414 c-46 -21 -382 -359 -405 -408 -36 -76 -20 -171 38 -234
54 -61 160 -82 238 -49 38 16 338 306 392 379 54 73 44 197 -22 264 -59 59
-165 81 -241 48z"/>
<path d="M2488 3945 c-2 -1 -38 -5 -80 -9 -43 -4 -83 -9 -90 -11 -7 -2 -25 -6
-39 -9 -82 -13 -208 -56 -309 -103 -369 -173 -660 -527 -754 -919 -135 -558
75 -1125 540 -1460 290 -209 654 -296 1009 -244 544 81 999 490 1135 1020 139
544 -57 1112 -500 1449 -244 186 -496 274 -817 286 -50 1 -93 2 -95 0z m297
-454 c359 -86 628 -364 716 -741 21 -88 15 -375 -8 -413 -2 -4 -7 -19 -9 -34
-8 -40 -63 -171 -98 -228 -83 -139 -209 -266 -329 -334 -20 -12 -52 -29 -69
-39 -40 -22 -178 -74 -178 -66 0 2 -8 0 -17 -5 -62 -33 -337 -34 -459 -2 -280
73 -508 254 -630 502 -36 73 -77 179 -69 179 3 0 0 11 -5 24 -22 60 -33 273
-19 371 30 196 140 406 286 546 234 224 572 316 888 240z"/>
<path d="M174 2767 c-94 -16 -166 -99 -170 -195 -4 -93 37 -161 121 -205 38
-19 56 -20 301 -20 255 0 262 0 308 24 140 70 157 267 31 358 -23 16 -54 33
-70 37 -40 10 -463 11 -521 1z"/>
<path d="M4475 2772 c-64 -7 -103 -23 -140 -59 -47 -47 -65 -89 -65 -151 0
-88 39 -151 118 -192 41 -22 54 -23 300 -23 220 0 263 2 297 17 82 35 127 99
131 186 4 90 -37 159 -121 202 -37 19 -59 21 -265 22 -124 1 -238 0 -255 -2z"/>
<path d="M1136 1403 c-43 -13 -71 -36 -235 -201 -198 -198 -211 -217 -211
-309 0 -56 42 -132 93 -168 38 -27 50 -30 118 -30 68 0 80 3 115 29 77 58 364
353 380 393 72 170 -81 338 -260 286z"/>
<path d="M3870 1410 c-94 -26 -156 -99 -163 -192 -7 -86 12 -117 192 -298 204
-205 223 -220 295 -227 161 -17 271 122 224 281 -10 33 -49 78 -198 227 -130
131 -195 189 -220 197 -48 16 -100 21 -130 12z"/>
<path d="M2461 827 c-57 -29 -101 -93 -110 -160 -11 -92 -5 -479 9 -521 14
-44 61 -101 101 -121 40 -21 112 -28 160 -15 54 15 114 71 135 126 25 65 25
529 0 586 -49 113 -185 162 -295 105z"/>
</g>
</svg>
